<?xml version="1.0" encoding="utf-8"?>
<!-- Generator: Adobe Illustrator 16.0.0, SVG Export Plug-In . SVG Version: 6.00 Build 0)  -->
<!DOCTYPE svg PUBLIC "-//W3C//DTD SVG 1.1//EN" "http://www.w3.org/Graphics/SVG/1.1/DTD/svg11.dtd">
<svg version="1.1" id="Layer_1" xmlns="http://www.w3.org/2000/svg" xmlns:xlink="http://www.w3.org/1999/xlink" x="0px" y="0px"
	 width="120px" height="37.03px" viewBox="0 0 120 37.03" enable-background="new 0 0 120 37.03" xml:space="preserve">
<g>
	<path fill-rule="evenodd" clip-rule="evenodd" fill="#8CC641" d="M8.86,10.72c0.18,0.35,0.31,0.68,0.41,1.02
		c0.05,0.16,0.14,0.3,0.21,0.45c0.14,0.3,0.27,0.61,0.46,0.88c0.16,0.23,0.24,0.5,0.45,0.7c0.28,0.27,0.61,0.41,0.96,0.54
		c0.14,0.05,0.29,0.08,0.44,0.16c0.07-0.14,0.15-0.27,0.14-0.44c-0.01-0.11,0.07-0.21,0.11-0.31c0.06-0.13,0.05-0.28,0.14-0.4
		c0.02-0.02,0.03-0.06,0.03-0.09c0-0.21,0.09-0.4,0.17-0.58c0.03-0.06,0.02-0.11,0.02-0.17c0-0.06,0.01-0.11,0.03-0.16
		c0.13-0.26,0.07-0.45-0.18-0.58c-0.11-0.05-0.19-0.12-0.27-0.2c-0.18-0.18-0.34-0.37-0.53-0.53c-0.21-0.18-0.31-0.42-0.45-0.65
		C11,10.33,11,10.28,11,10.23c0-0.04,0.01-0.09,0-0.12c-0.15-0.21-0.08-0.45-0.09-0.68c-0.01-0.34,0-0.68,0-1.02
		c0-0.14-0.01-0.28,0.07-0.42C11.05,7.86,11,7.69,11,7.53c0-0.26,0-0.26,0.13-0.48c0.15,0.15,0.16,0.36,0.23,0.53
		c0.16,0.41,0.36,0.81,0.56,1.2c0.04,0.08,0.1,0.15,0.15,0.21c0.09,0.1,0.22,0.16,0.25,0.32c0,0.03,0.04,0.04,0.07,0.06
		c0.11,0.05,0.21,0.11,0.32,0.16c0.07,0.04,0.15,0.04,0.21,0.01c0.38-0.15,0.77-0.27,1.14-0.47c0.11-0.06,0.17-0.16,0.3-0.2
		c0.09-0.03,0.06-0.13-0.01-0.2c-0.12-0.12-0.24-0.24-0.36-0.36c-0.25-0.24-0.43-0.54-0.67-0.79c-0.18-0.18-0.27-0.44-0.4-0.67
		C12.9,6.84,12.9,6.79,12.9,6.75c0-0.24-0.01-0.49,0-0.73c0.01-0.16,0.07-0.33,0.12-0.48c0.08-0.23,0.17-0.46,0.24-0.69
		c0.08-0.27,0.22-0.51,0.34-0.76c0.06-0.13,0.05-0.28,0.15-0.4c0.08-0.1,0.12-0.11,0.18,0.01c0.17,0.37,0.44,0.68,0.58,1.06
		C14.75,5,14.8,5.35,15.02,5.61c0.14,0.17,0.22,0.41,0.31,0.62c0.06,0.14,0.21,0.2,0.22,0.37c0,0.01,0.02,0.02,0.04,0.02
		c0.03,0,0.05-0.02,0.05-0.04c0.01-0.03,0.01-0.06,0.01-0.1c0-0.48-0.01-0.96-0.01-1.43c0-0.15-0.01-0.28-0.09-0.41
		c-0.16-0.26-0.25-0.56-0.38-0.84c-0.1-0.23-0.23-0.45-0.34-0.68c-0.1-0.19-0.09-0.23,0.06-0.38c0.37-0.37,0.75-0.74,1.12-1.11
		c0.47-0.47,0.94-0.94,1.41-1.41c0.03-0.03,0.07-0.07,0.1-0.1c0.06-0.06,0.14-0.09,0.22-0.06s0.04,0.11,0.04,0.17
		c0.01,0.1,0,0.19,0,0.29c0,12.05,0,24.11,0,36.16c0,0.34,0,0.34-0.35,0.34c-4.17,0-8.34,0-12.51,0c-0.32,0-0.29,0.05-0.3-0.3
		c-0.02-0.57-0.04-1.13-0.06-1.7c-0.01-0.14,0.03-0.22,0.16-0.3c0.69-0.42,1.36-0.86,2.04-1.28c0.07-0.04,0.11-0.08,0.12-0.16
		c0.14-0.82,0.22-1.65,0.29-2.48c0.04-0.48,0.09-0.95,0.13-1.43c0.01-0.06,0-0.11,0.01-0.17c0.01-0.09-0.02-0.14-0.1-0.2
		c-0.22-0.16-0.44-0.32-0.65-0.5c-0.29-0.24-0.59-0.46-0.87-0.72c-0.19-0.18-0.4-0.35-0.59-0.53c-0.28-0.25-0.57-0.48-0.82-0.75
		c-0.23-0.26-0.5-0.49-0.7-0.76c-0.13-0.19-0.28-0.36-0.41-0.55c-0.14-0.22-0.24-0.45-0.37-0.66c-0.05-0.08-0.08-0.16-0.07-0.25
		c0-0.03,0.01-0.08-0.01-0.1c-0.14-0.16-0.08-0.35-0.09-0.53c-0.01-0.28,0-0.55,0-0.83c0-0.12-0.02-0.23,0.07-0.34
		c0.06-0.08,0.02-0.2,0.02-0.31c0.01-0.12-0.03-0.24,0.07-0.34c0.02-0.02,0.03-0.06,0.02-0.09c-0.01-0.15-0.01-0.31,0.09-0.44
		c-0.06-0.22,0.11-0.41,0.1-0.63c-0.01-0.12,0.14-0.19,0.1-0.31c0.13-0.15,0.08-0.36,0.17-0.54c0.06-0.13,0.06-0.3,0.12-0.45
		c0.06-0.15,0.08-0.32,0.16-0.46c0.04-0.08,0-0.16,0.05-0.23c0.03-0.04,0.06-0.09,0.12-0.07c0.05,0.01,0.05,0.07,0.04,0.1
		c-0.07,0.27,0.13,0.51,0.09,0.78c0.17,0.19,0.01,0.47,0.19,0.66c-0.05,0.2,0.12,0.36,0.1,0.56c-0.01,0.12,0.08,0.23,0.11,0.36
		c0.08,0.3,0.24,0.58,0.38,0.86c0.17,0.33,0.43,0.6,0.76,0.77c0.27,0.14,0.55,0.24,0.83,0.33c0.23,0.07,0.47,0.12,0.69,0.24
		c0.12,0.07,0.28-0.02,0.39,0.1c0.21-0.02,0.39,0.13,0.6,0.12c0.04,0,0.08,0,0.1-0.05c0.01-0.04-0.02-0.06-0.04-0.08
		c-0.19-0.16-0.3-0.37-0.41-0.58c-0.02-0.03-0.05-0.06-0.08-0.09c-0.17-0.17-0.27-0.39-0.41-0.58c-0.22-0.29-0.36-0.63-0.59-0.92
		c-0.15-0.19-0.23-0.44-0.34-0.65c-0.1-0.19-0.17-0.39-0.18-0.61c0-0.01,0-0.02,0-0.02c-0.18-0.31-0.06-0.64-0.09-0.96
		c-0.01-0.13-0.01-0.26-0.01-0.39c0-0.03-0.01-0.07,0-0.1c0.14-0.19,0.07-0.4,0.08-0.61c0.01-0.09-0.01-0.18,0.06-0.25
		c0.04-0.04,0.03-0.09,0.03-0.14c0-0.17-0.03-0.34,0.09-0.49c0.02-0.03,0.01-0.09,0.01-0.14c0-0.1-0.02-0.2,0.07-0.27
		c0.02-0.02,0.03-0.05,0.03-0.07c-0.05-0.2,0.14-0.36,0.1-0.56c0.15-0.29,0.08-0.64,0.27-0.92c0.03-0.05,0.01-0.14,0.02-0.21
		c0-0.05,0.02-0.1,0.08-0.1c0.06-0.01,0.08,0.04,0.09,0.09c0.04,0.23,0.16,0.44,0.23,0.66c0.07,0.23,0.21,0.42,0.26,0.66
		c0.03,0.17,0.15,0.31,0.22,0.47c0.06,0.12,0.1,0.25,0.15,0.37c0.1,0.24,0.2,0.49,0.35,0.7c0.05,0.06,0.1,0.12,0.13,0.2
		c0.08,0.2,0.22,0.35,0.37,0.49c0.23,0.22,0.44,0.44,0.74,0.56c0.13,0.05,0.26,0.08,0.38,0.13c0.17,0.07,0.35,0.13,0.53,0.18
		c0.15,0.04,0.31,0.07,0.46,0.11c0.12,0.03,0.16-0.02,0.17-0.14c0.01-0.25,0-0.5,0-0.75c0-0.06-0.02-0.15,0.01-0.19
		c0.16-0.22,0.05-0.47,0.08-0.71c0.01-0.04-0.01-0.08-0.04-0.11c-0.2-0.16-0.33-0.39-0.58-0.51c-0.12-0.06-0.21-0.19-0.32-0.29
		c-0.16-0.16-0.32-0.32-0.48-0.48c-0.2-0.2-0.34-0.43-0.5-0.66c-0.11-0.15-0.19-0.32-0.23-0.48c-0.05-0.2-0.13-0.39-0.13-0.6
		c0.01-0.73,0-1.46,0-2.19c0-0.1-0.02-0.21,0.07-0.3c0.04-0.04,0.03-0.11,0.03-0.16c0-0.1,0.01-0.2,0-0.29
		C8.7,11.21,8.77,10.98,8.86,10.72z"/>
	<path fill-rule="evenodd" clip-rule="evenodd" fill="#17AA9D" d="M23.05,6.53c0.12-0.06,0.14-0.17,0.18-0.26
		c0.13-0.3,0.33-0.56,0.47-0.85c0.13-0.28,0.29-0.55,0.45-0.81c0.19-0.31,0.32-0.65,0.55-0.94c0.05-0.07,0.12-0.08,0.15,0
		c0.06,0.17,0.2,0.3,0.21,0.5c0,0.09,0.08,0.19,0.13,0.28c0.12,0.21,0.17,0.44,0.25,0.66c0.05,0.13,0.06,0.28,0.14,0.4
		c0.04,0.05,0.04,0.1,0.04,0.16c0,0.05-0.01,0.11,0.01,0.14c0.17,0.29,0.08,0.6,0.07,0.9c0,0.16-0.14,0.31-0.21,0.47
		c-0.06,0.15-0.19,0.26-0.28,0.39c-0.23,0.33-0.52,0.61-0.8,0.9c-0.09,0.1-0.19,0.19-0.28,0.29c0.28,0.19,0.56,0.35,0.85,0.49
		c0.23,0.11,0.46,0.22,0.72,0.22c0.37,0.01,0.57-0.2,0.77-0.48c0.24-0.35,0.42-0.73,0.58-1.11c0.09-0.22,0.21-0.43,0.25-0.68
		c0.01-0.09,0.08-0.16,0.15-0.3c0.04,0.35,0.16,0.63,0.12,0.94c-0.01,0.12-0.03,0.24,0.07,0.34c0.04,0.04,0.02,0.11,0.02,0.17
		c0,0.43,0,0.86,0,1.29c0,0.07,0.01,0.15-0.05,0.21c-0.04,0.04-0.06,0.1-0.04,0.16c0.05,0.2-0.11,0.35-0.1,0.53
		c0,0.01-0.01,0.03-0.02,0.04c-0.25,0.25-0.38,0.62-0.69,0.79c-0.25,0.14-0.38,0.42-0.66,0.51c-0.07,0.02-0.09,0.08-0.05,0.19
		c0.05,0.16,0.16,0.31,0.13,0.5c-0.02,0.11,0.07,0.19,0.1,0.29c0.09,0.27,0.12,0.56,0.24,0.83c0.06,0.15,0.14,0.31,0.13,0.5
		c-0.01,0.17,0.17,0.26,0.33,0.2c0.26-0.11,0.52-0.22,0.77-0.35c0.23-0.13,0.42-0.32,0.55-0.53c0.4-0.62,0.67-1.31,1.01-1.96
		c0.01-0.24,0.21-0.41,0.22-0.64c0-0.08,0.05-0.13,0.14-0.15c0.09,0.32,0.16,0.64,0.13,0.98c-0.01,0.12-0.03,0.24,0.07,0.34
		c0.04,0.05,0.02,0.12,0.02,0.19c0,0.7,0,1.39,0,2.09c0,0.09,0.02,0.18-0.06,0.25c-0.02,0.02-0.03,0.06-0.03,0.09
		c0,0.23-0.09,0.43-0.19,0.63c-0.08,0.15-0.16,0.31-0.27,0.44c-0.42,0.44-0.85,0.87-1.28,1.31c-0.08,0.09-0.22,0.09-0.3,0.2
		c-0.06,0.08-0.11,0.15-0.1,0.26c0.01,0.22,0,0.44,0,0.66c0,0.04-0.01,0.09,0.01,0.12c0.16,0.23,0.07,0.48,0.09,0.73
		c0.01,0.2,0.01,0.2,0.2,0.21c0.11,0,0.21-0.02,0.32-0.07c0.13-0.06,0.29-0.07,0.43-0.11c0.35-0.1,0.67-0.24,0.97-0.42
		c0.17-0.1,0.32-0.27,0.43-0.48c0.07-0.14,0.16-0.29,0.28-0.42c0.11-0.11,0.15-0.28,0.22-0.42c0.16-0.32,0.35-0.63,0.47-0.96
		c0.11-0.3,0.28-0.58,0.31-0.91c0-0.02,0.01-0.05,0.02-0.07c0.16-0.22,0.2-0.49,0.29-0.74c0.09,0.02,0.14,0.08,0.14,0.17
		c0,0.11,0.06,0.22,0.07,0.32c0.02,0.19,0.1,0.36,0.13,0.55c0.03,0.18,0.05,0.37,0.14,0.54c0.02,0.05,0.03,0.09,0.03,0.14
		c-0.01,0.09-0.02,0.18,0.06,0.25c0.04,0.04,0.03,0.09,0.03,0.14c0,0.17-0.03,0.33,0.08,0.49c0.03,0.04,0.01,0.13,0.01,0.19
		c0,0.12-0.01,0.23,0.07,0.35c0.06,0.08,0.01,0.19,0.02,0.29c0.01,0.16-0.05,0.34,0.08,0.49c0.03,0.03,0.01,0.11,0.01,0.17
		c0,0.22,0,0.44,0,0.66c0,0.1,0.02,0.2-0.07,0.27c-0.02,0.01-0.02,0.04-0.02,0.07c0.02,0.47-0.24,0.84-0.43,1.24
		c-0.13,0.28-0.32,0.51-0.46,0.77c-0.11,0.19-0.24,0.37-0.33,0.57c-0.02,0.04-0.04,0.07-0.07,0.1c-0.17,0.17-0.29,0.37-0.4,0.59
		c-0.03,0.06-0.08,0.1-0.13,0.14c-0.04,0.05-0.11,0.09-0.12,0.15c-0.01,0.08-0.13,0.14-0.08,0.21c0.07,0.09,0.14-0.04,0.21-0.04
		c0.21,0,0.39-0.14,0.6-0.12c0.16,0.02,0.29-0.08,0.43-0.12c0.26-0.08,0.53-0.15,0.78-0.26c0.27-0.12,0.57-0.21,0.78-0.45
		c0.02-0.02,0.03-0.04,0.05-0.05c0.2-0.17,0.3-0.28,0.42-0.52c0.11-0.2,0.21-0.41,0.31-0.61c0.05-0.1,0.08-0.22,0.09-0.31
		c0.03-0.16,0.1-0.32,0.14-0.47c0.04-0.18,0.02-0.38,0.14-0.54c0.01-0.01,0.02-0.03,0.02-0.04c-0.04-0.23,0.11-0.43,0.09-0.66
		c0-0.08,0-0.16,0.06-0.23c0.07-0.09,0.02-0.2,0.04-0.31c0-0.04-0.01-0.09,0.04-0.1c0.06-0.02,0.09,0.03,0.11,0.07
		c0.06,0.08,0.03,0.18,0.07,0.27c0.06,0.16,0.13,0.31,0.15,0.49c0.01,0.14,0.07,0.29,0.13,0.42c0.03,0.07,0.04,0.14,0.05,0.2
		c0.05,0.2,0.08,0.4,0.15,0.59c0.01,0.03,0.03,0.06,0.03,0.09c0.02,0.25,0.08,0.48,0.17,0.71c0.02,0.04,0.01,0.1,0.01,0.14
		c0.01,0.14-0.03,0.29,0.08,0.42c0.03,0.03,0.01,0.11,0.01,0.17c0.01,0.17-0.04,0.36,0.09,0.51c0.01,0.43,0.01,0.86,0,1.29
		c-0.13,0.16-0.06,0.39-0.18,0.56c-0.11,0.16-0.19,0.35-0.27,0.53c-0.02,0.04-0.02,0.08-0.05,0.11c-0.2,0.15-0.31,0.37-0.44,0.56
		c-0.19,0.28-0.43,0.5-0.67,0.73c-0.64,0.62-1.3,1.23-2.01,1.77c-0.28,0.21-0.54,0.44-0.82,0.65c-0.08,0.07-0.12,0.14-0.13,0.24
		c-0.04,0.42,0.05,0.82,0.09,1.23c0.05,0.55,0.12,1.09,0.18,1.64c0.04,0.39,0.09,0.77,0.13,1.16c0.01,0.15,0.09,0.25,0.22,0.33
		c0.64,0.41,1.28,0.82,1.92,1.22c0.15,0.09,0.2,0.19,0.2,0.37c-0.03,0.57-0.03,1.15-0.05,1.72c-0.01,0.23-0.01,0.23-0.23,0.23
		c-4.2,0-8.4,0-12.6,0c-0.04,0-0.08,0-0.12,0c-0.07,0-0.11-0.03-0.1-0.1c0-0.07,0-0.15,0-0.22c0-8.54,0-17.08,0.01-25.62
		c0-3.58,0-7.16-0.01-10.73c0-0.06,0-0.11,0-0.17c0.01-0.06-0.03-0.14,0.04-0.17c0.09-0.04,0.15,0.01,0.21,0.07
		C21.36,0.39,21.69,0.7,22,1.01c0.58,0.56,1.15,1.12,1.72,1.67c0.16,0.16,0.16,0.16,0.06,0.37c-0.09,0.19-0.22,0.38-0.28,0.58
		C23.4,4,23.19,4.33,23.02,4.68C23.01,4.71,23.01,4.76,23,4.79c0,0.55,0,1.1,0,1.65C23,6.48,23.01,6.51,23.05,6.53z"/>
	<path fill-rule="evenodd" clip-rule="evenodd" fill="#17AA9D" d="M99.83,16.03c0.35,0.17,0.67,0.29,0.95,0.48
		c0.43,0.28,0.81,0.6,1.08,1.05c0.24,0.38,0.38,0.79,0.42,1.23c0.14,1.21-0.09,2.33-0.91,3.28c-0.35,0.41-0.79,0.71-1.28,0.93
		c-0.53,0.23-1.09,0.33-1.66,0.33c-2.06,0.01-4.13,0-6.19,0c-0.23,0-0.23,0-0.23-0.28c0-3.32,0-6.64,0-9.95c0-1.08,0-2.15,0-3.23
		c0-0.08,0-0.16,0-0.23c0-0.08,0.04-0.13,0.12-0.13c0.06,0,0.12,0,0.18,0c1.8,0,3.6,0,5.4,0c0.63,0,1.25,0.08,1.84,0.31
		c1.36,0.52,2.03,1.56,2.16,2.96c0.07,0.79-0.1,1.53-0.58,2.18C100.79,15.41,100.37,15.76,99.83,16.03z M96.2,17.02
		c-0.71,0-1.41,0-2.11,0c-0.07,0-0.14,0-0.21,0c-0.07,0-0.11,0.03-0.11,0.1c0,0.07,0,0.14,0,0.21c0,1.38,0,2.76,0,4.14
		c0,0.05,0,0.1,0,0.15c-0.01,0.11,0.04,0.16,0.15,0.16c0.07,0,0.14,0,0.21,0c1.27,0,2.55,0,3.82,0c0.25,0,0.49-0.02,0.73-0.06
		c0.93-0.16,1.53-0.69,1.79-1.61c0.1-0.36,0.11-0.74,0.07-1.11c-0.11-0.96-0.7-1.65-1.63-1.89c-0.27-0.07-0.54-0.09-0.81-0.09
		C97.46,17.03,96.83,17.02,96.2,17.02z M93.77,13.26c0,0.67,0,1.33,0,1.99c0,0.15,0.04,0.21,0.2,0.21c1.22-0.01,2.44,0,3.67-0.02
		c0.39,0,0.78-0.09,1.14-0.24c0.61-0.25,0.98-0.69,1.12-1.33c0.06-0.29,0.07-0.58,0.05-0.88c-0.07-0.94-0.57-1.53-1.48-1.78
		c-0.4-0.11-0.81-0.15-1.22-0.15c-1.08-0.01-2.15,0-3.23,0c-0.25,0-0.25,0-0.25,0.27C93.77,11.97,93.77,12.61,93.77,13.26z"/>
	<path fill-rule="evenodd" clip-rule="evenodd" fill="#8CC641" d="M48.36,23.75c-0.74,0.01-1.33-0.08-1.93-0.17
		c-0.72-0.11-1.35-0.38-1.93-0.8c-0.61-0.44-1.06-1.02-1.36-1.73c-0.26-0.61-0.32-1.25-0.37-1.89c-0.02-0.23-0.01-0.24,0.21-0.24
		c0.42,0,0.84,0,1.26,0c0.16,0,0.2,0.06,0.2,0.21c0,0.59,0.14,1.14,0.46,1.63c0.44,0.67,1.08,1.07,1.83,1.26
		c0.93,0.24,1.87,0.26,2.82,0.08c0.5-0.09,0.96-0.27,1.38-0.57c0.39-0.28,0.65-0.65,0.8-1.1c0.05-0.15,0.12-0.3,0.13-0.47
		c0.06-0.76-0.24-1.33-0.87-1.75c-0.29-0.2-0.61-0.36-0.95-0.47c-0.78-0.26-1.58-0.44-2.38-0.66c-0.52-0.14-1.04-0.28-1.56-0.42
		c-0.29-0.08-0.58-0.17-0.87-0.28c-0.73-0.29-1.35-0.71-1.73-1.41c-0.16-0.3-0.26-0.63-0.3-0.98c-0.05-0.52-0.02-1.04,0.01-1.55
		c0.01-0.19,0.09-0.38,0.17-0.57c0.23-0.57,0.54-1.07,1.02-1.48c0.76-0.64,1.66-0.93,2.62-1.05c0.71-0.09,1.43-0.09,2.14,0
		c0.93,0.12,1.8,0.39,2.54,0.98c0.67,0.53,1.1,1.23,1.3,2.06c0.08,0.33,0.14,0.67,0.13,1.01c0,0.13-0.04,0.17-0.17,0.17
		c-0.44,0-0.88,0-1.32,0c-0.13,0-0.17-0.04-0.18-0.17c-0.01-0.18-0.04-0.37-0.08-0.55c-0.2-0.88-0.74-1.49-1.58-1.79
		c-1.09-0.4-2.2-0.43-3.3-0.05c-0.43,0.15-0.81,0.39-1.1,0.75c-0.44,0.55-0.59,1.18-0.41,1.87c0.1,0.39,0.35,0.67,0.67,0.89
		c0.43,0.3,0.93,0.45,1.43,0.59c1.23,0.34,2.47,0.67,3.71,1c0.65,0.18,1.24,0.48,1.74,0.93c0.67,0.6,1.02,1.36,1.07,2.26
		c0.06,1.2-0.32,2.24-1.17,3.1c-0.49,0.49-1.08,0.84-1.73,1.04C49.91,23.66,49.08,23.79,48.36,23.75z"/>
	<path fill-rule="evenodd" clip-rule="evenodd" fill="#8CC641" d="M77.4,22.12c-0.15,0.18-0.29,0.36-0.45,0.54
		c-0.59,0.65-1.33,1.02-2.21,1.08c-0.54,0.04-1.08,0.01-1.6-0.09c-0.42-0.08-0.81-0.27-1.17-0.52c-0.48-0.32-0.88-0.73-1.16-1.23
		c-0.26-0.47-0.51-0.95-0.62-1.48c-0.21-1.05-0.27-2.1-0.15-3.17c0.05-0.49,0.14-0.96,0.32-1.42c0.28-0.71,0.67-1.36,1.26-1.86
		c0.49-0.41,1.05-0.66,1.67-0.79c0.71-0.14,1.41-0.13,2.11,0.06c0.71,0.2,1.28,0.61,1.74,1.17c0.02,0.03,0.05,0.06,0.08,0.09
		c0,0.01,0.02,0,0.06,0.02c0-0.11,0-0.21,0-0.31c0-1.44,0-2.88,0-4.32c0-0.08,0-0.16,0-0.23c-0.01-0.13,0.05-0.17,0.18-0.17
		c0.41,0,0.82,0,1.23,0c0.12,0,0.19,0.04,0.18,0.17c-0.01,0.07,0,0.14,0,0.21c0,4.36,0,8.73,0,13.09c0,0.41,0.05,0.36-0.36,0.36
		c-0.28,0-0.57-0.01-0.85,0c-0.15,0-0.21-0.04-0.2-0.2c0.01-0.33,0-0.66,0-0.99C77.44,22.13,77.42,22.12,77.4,22.12z M71.63,18.43
		c0,0.33,0.02,0.66,0.07,0.99c0.11,0.64,0.32,1.25,0.71,1.78c1.01,1.4,3.17,1.48,4.19-0.06c0.17-0.26,0.3-0.53,0.4-0.81
		c0.34-1,0.36-2.01,0.19-3.04c-0.1-0.57-0.28-1.12-0.61-1.6c-0.64-0.93-1.69-1.31-2.78-1.01c-0.74,0.21-1.26,0.69-1.62,1.35
		C71.76,16.77,71.62,17.58,71.63,18.43z"/>
	<path fill-rule="evenodd" clip-rule="evenodd" fill="#8CC641" d="M0,33.6c0-1.04,0-2.07,0-3.11c0-0.06,0-0.11,0-0.17
		c-0.01-0.11,0.03-0.17,0.15-0.16c0.04,0,0.08,0,0.12,0c1.66,0,3.32,0,4.98,0c0.11,0,0.23,0.01,0.34,0.03
		c0.17,0.04,0.17,0.03,0.17,0.21c0,0.77,0,1.54,0,2.31c0,0.12-0.03,0.21-0.12,0.3c-0.66,0.66-1.31,1.32-1.98,1.97
		c-0.08,0.08-0.1,0.15-0.09,0.25c0.04,0.48,0.08,0.95,0.11,1.43c0.03,0.45,0.05,0.36-0.33,0.36c-1.01,0-2.02,0-3.03,0
		c-0.06,0-0.11,0-0.17,0C0.03,37.04,0,36.99,0,36.87c0.01-0.3,0-0.6,0-0.9C0,35.18,0,34.39,0,33.6z"/>
	<path fill-rule="evenodd" clip-rule="evenodd" fill="#17AA9D" d="M103.94,16.33c0.08-0.19,0.1-0.34,0.11-0.49
		c0.13-1.25,0.79-2.08,1.98-2.45c1.33-0.41,2.67-0.42,4,0.03c1.09,0.37,1.69,1.21,1.69,2.36c0,0.87,0,1.74,0,2.61
		c0,1.04,0,2.08,0,3.11c0,0.14,0,0.28,0.03,0.41c0.08,0.31,0.31,0.47,0.61,0.5c0.14,0.02,0.27,0.01,0.41,0.01
		c0.1,0,0.15,0.02,0.15,0.13c0,0.3-0.01,0.61,0,0.91c0,0.12-0.07,0.15-0.15,0.18c-0.3,0.12-0.63,0.12-0.95,0.12
		c-0.24,0-0.48-0.04-0.72-0.07c-0.36-0.06-0.82-0.54-0.87-1.05c-0.01-0.09-0.02-0.17-0.03-0.28c-0.16,0.08-0.28,0.19-0.41,0.29
		c-0.53,0.45-1.12,0.8-1.8,0.98c-0.65,0.17-1.31,0.19-1.98,0.08c-0.37-0.06-0.73-0.14-1.06-0.32c-0.45-0.25-0.82-0.58-1.06-1.04
		c-0.1-0.2-0.22-0.4-0.26-0.63c-0.08-0.42-0.07-0.85-0.07-1.27c0-0.47,0.14-0.89,0.37-1.28c0.18-0.31,0.46-0.54,0.77-0.72
		c0.46-0.26,0.95-0.41,1.45-0.52c0.8-0.17,1.62-0.27,2.43-0.37c0.39-0.05,0.76-0.16,1.13-0.33c0.27-0.13,0.36-0.36,0.39-0.59
		c0.05-0.31,0.05-0.62-0.06-0.95c-0.16-0.44-0.46-0.7-0.86-0.87c-0.78-0.32-1.57-0.31-2.36-0.09c-0.7,0.2-1.09,0.67-1.2,1.38
		c-0.04,0.22-0.04,0.23-0.25,0.23C104.92,16.33,104.45,16.33,103.94,16.33z M110.16,18.44c-0.31,0.1-0.57,0.19-0.85,0.25
		c-0.57,0.12-1.16,0.18-1.74,0.29c-0.54,0.1-1.08,0.2-1.56,0.47c-0.62,0.35-0.85,0.9-0.77,1.58c0.08,0.64,0.46,1.03,1.07,1.23
		c0.38,0.12,0.77,0.14,1.16,0.11c0.73-0.05,1.4-0.28,1.96-0.77c0.41-0.36,0.7-0.8,0.73-1.36C110.18,19.65,110.16,19.06,110.16,18.44
		z"/>
	<path fill-rule="evenodd" clip-rule="evenodd" fill="#17AA9D" d="M34.73,37.01c0.06-0.47,0.1-0.93,0.18-1.38
		c0.05-0.29,0-0.49-0.22-0.7c-0.61-0.59-1.19-1.21-1.79-1.81c-0.08-0.08-0.12-0.16-0.12-0.28c0-0.82,0-1.63,0-2.45
		c0-0.17,0-0.18,0.2-0.18c1.13,0,2.25,0,3.37,0c0.62,0,1.25-0.01,1.87-0.01c0.2,0,0.2,0,0.2,0.2c0,2.14,0,4.29,0,6.43
		c0,0.19,0,0.2-0.18,0.2c-1.14,0-2.28,0-3.42,0C34.81,37.03,34.79,37.02,34.73,37.01z"/>
	<path fill-rule="evenodd" clip-rule="evenodd" fill="#8CC641" d="M84.46,21.04c0.24-0.76,0.5-1.49,0.78-2.22
		c0.2-0.54,0.38-1.1,0.57-1.64c0.21-0.6,0.44-1.2,0.65-1.8c0.2-0.55,0.39-1.09,0.57-1.64c0.02-0.07,0.07-0.14,0.09-0.21
		c0.04-0.1,0.11-0.15,0.22-0.15c0.5,0.01,1,0,1.5,0c0.03,0.14-0.04,0.26-0.08,0.37c-0.49,1.34-0.98,2.68-1.47,4.01
		c-0.53,1.44-1.06,2.87-1.59,4.31c-0.42,1.16-0.83,2.32-1.28,3.47c-0.24,0.64-0.61,1.19-1.21,1.57c-0.28,0.17-0.57,0.28-0.89,0.32
		c-0.33,0.04-0.66,0.01-1-0.01c-0.12-0.01-0.24-0.06-0.34-0.13c-0.09-0.05-0.13-0.11-0.13-0.21c0-0.42,0-0.84,0-1.28
		c0.31,0.03,0.59,0.09,0.88,0.09c0.52,0,0.86-0.27,1.07-0.72c0.26-0.54,0.45-1.11,0.67-1.67c0.05-0.12,0.04-0.21,0-0.33
		c-0.37-1.1-0.74-2.2-1.12-3.3c-0.62-1.83-1.21-3.66-1.84-5.48c-0.09-0.26-0.18-0.52-0.27-0.79c-0.06-0.19-0.03-0.23,0.16-0.23
		c0.42,0,0.84,0.01,1.26-0.01c0.18-0.01,0.25,0.07,0.3,0.23c0.29,0.9,0.58,1.79,0.88,2.68c0.34,1.04,0.69,2.08,1.03,3.12
		c0.16,0.5,0.33,0.99,0.49,1.49C84.39,20.94,84.39,21,84.46,21.04z"/>
	<path fill-rule="evenodd" clip-rule="evenodd" fill="#8CC641" d="M66.93,21.97c-0.26,0.29-0.46,0.56-0.7,0.79
		c-0.62,0.6-1.35,0.94-2.22,0.98c-0.54,0.03-1.08,0-1.6-0.1c-0.38-0.07-0.72-0.27-1.03-0.51c-0.25-0.19-0.45-0.43-0.61-0.69
		c-0.16-0.25-0.26-0.53-0.29-0.83c-0.05-0.44-0.04-0.88-0.04-1.32c0-2.15,0-4.31,0-6.46c0-0.06,0-0.12,0-0.18
		c0-0.29,0-0.29,0.29-0.29c0.35,0,0.7,0,1.06,0c0.22,0,0.22,0,0.22,0.23c0,0.77,0,1.55,0,2.32c0,1.48,0,2.95,0,4.43
		c0,0.33,0.05,0.66,0.19,0.96c0.26,0.57,0.73,0.86,1.32,0.99c0.78,0.17,1.48-0.02,2.11-0.49c0.23-0.17,0.42-0.4,0.57-0.66
		c0.23-0.39,0.35-0.81,0.47-1.25c0.09-0.36,0.1-0.71,0.1-1.07c0.01-1.69,0-3.39,0-5.08c0-0.06,0-0.12,0-0.18
		c0.01-0.21,0.01-0.22,0.21-0.22c0.4,0,0.8,0,1.2,0c0.12,0,0.18,0.04,0.17,0.17c0,0.06,0,0.12,0,0.18c0,3.08,0,6.16,0,9.25
		c0,0.39,0.05,0.35-0.34,0.35c-0.28,0-0.57,0-0.85,0c-0.23,0-0.23,0-0.23-0.22C66.93,22.75,66.93,22.39,66.93,21.97z"/>
	<path fill-rule="evenodd" clip-rule="evenodd" fill="#8CC641" d="M55.73,18.56c0-1.17,0-2.35,0-3.52c0-0.07,0-0.14,0-0.21
		c0.01-0.12-0.05-0.15-0.16-0.15c-0.31,0-0.63,0-0.94,0c-0.24,0-0.25,0-0.25-0.24c0-0.27,0-0.55,0-0.82c0-0.23,0-0.23,0.25-0.24
		c0.29,0,0.59,0,0.88,0c0.21,0,0.21-0.01,0.21-0.21c0-0.71,0-1.43,0-2.14c0-0.07,0-0.14,0-0.21c-0.01-0.14,0.05-0.19,0.19-0.19
		c0.4,0.01,0.8,0.01,1.2,0c0.16,0,0.2,0.06,0.2,0.21c0,0.68,0,1.37,0,2.05c0,0.05,0,0.1,0,0.15c0,0.37-0.04,0.34,0.32,0.34
		c0.36,0,0.72,0,1.09,0c0.22,0,0.22,0,0.23,0.23c0,0.29,0,0.59,0,0.88c0,0.14-0.04,0.19-0.19,0.19c-0.38-0.01-0.76,0-1.14,0
		c-0.33,0-0.31-0.02-0.31,0.3c0,1.12,0,2.23,0,3.35c0,1.05,0,2.09,0,3.14c0,0.11,0,0.22,0.02,0.32c0.06,0.39,0.22,0.54,0.62,0.58
		c0.26,0.02,0.53,0.02,0.79-0.03c0.2-0.04,0.21-0.02,0.21,0.19c0,0.29,0,0.59,0,0.88c0,0.23-0.01,0.23-0.25,0.27
		c-0.57,0.09-1.15,0.1-1.73,0.04c-0.27-0.03-0.51-0.15-0.72-0.31c-0.1-0.07-0.18-0.17-0.27-0.27c-0.1-0.12-0.17-0.25-0.19-0.41
		c-0.04-0.31-0.07-0.62-0.07-0.94C55.73,20.71,55.73,19.63,55.73,18.56z"/>
	<path fill-rule="evenodd" clip-rule="evenodd" fill="#17AA9D" d="M116.03,16.44c0,2.16,0,4.32,0,6.49c0,0.07-0.01,0.14,0,0.21
		c0.02,0.16-0.06,0.2-0.21,0.2c-0.4-0.01-0.8-0.01-1.2,0c-0.15,0-0.22-0.05-0.2-0.2c0.01-0.05,0-0.1,0-0.15c0-4.37,0-8.75,0-13.12
		c0-0.41-0.03-0.35,0.37-0.35c0.35,0,0.71,0,1.06,0c0.14,0,0.2,0.04,0.19,0.19c-0.01,0.07,0,0.14,0,0.21
		C116.03,12.08,116.03,14.26,116.03,16.44z"/>
	<path fill-rule="evenodd" clip-rule="evenodd" fill="#17AA9D" d="M120,18.37c0,1.55,0,3.09,0,4.64c0,0.35,0.03,0.32-0.31,0.32
		c-0.36,0-0.72,0-1.09,0c-0.12,0-0.18-0.04-0.17-0.17c0-0.06,0-0.12,0-0.18c0-3.08,0-6.16,0-9.25c0-0.4-0.03-0.35,0.34-0.35
		c0.32,0,0.65,0,0.97,0c0.26,0,0.26,0,0.26,0.25c0,0.88,0,1.76,0,2.64C120,16.98,120,17.68,120,18.37z"/>
	<path fill-rule="evenodd" clip-rule="evenodd" fill="#676563" d="M69.84,30.94c0.35,0.34,0.59,0.69,0.84,1.02
		c0.28,0.36,0.41,0.44,0.93,0.64c0,0.09-0.07,0.08-0.13,0.08c-0.19,0-0.37-0.02-0.56,0.01c-0.26,0.03-0.43-0.09-0.57-0.28
		c-0.25-0.33-0.5-0.66-0.74-1c-0.09-0.12-0.2-0.21-0.29-0.32c-0.06-0.07-0.14-0.06-0.22-0.04c-0.09,0.02-0.07,0.1-0.07,0.17
		c0,0.33,0,0.67,0.01,1c0.01,0.28,0.07,0.33,0.35,0.35c0.05,0,0.1,0,0.15,0.01c0.04,0,0.08,0.03,0.06,0.07
		c-0.01,0.02-0.04,0.04-0.06,0.04c-0.03,0.01-0.06,0.01-0.09,0.01c-0.44,0-0.88,0-1.32,0c-0.05,0-0.13,0.02-0.13-0.07
		c0-0.06,0.06-0.06,0.11-0.06c0.35-0.06,0.4-0.11,0.4-0.45c0-0.76,0-1.53,0-2.29c0-0.05,0-0.1-0.01-0.15
		c-0.02-0.18-0.12-0.27-0.3-0.29c-0.08-0.01-0.15-0.02-0.23-0.02c-0.01,0-0.02-0.01-0.02-0.02c-0.02-0.07,0.04-0.08,0.08-0.09
		c0.64-0.05,1.29-0.12,1.92,0.01c0.32,0.07,0.61,0.21,0.74,0.55c0.11,0.28,0.08,0.53-0.12,0.76C70.41,30.79,70.18,30.91,69.84,30.94
		z M69.04,30.11c0,0.13,0,0.25,0,0.38c0,0.44,0,0.44,0.43,0.39c0.04,0,0.08-0.01,0.11-0.02c0.42-0.08,0.6-0.26,0.62-0.68
		c0.01-0.39-0.1-0.68-0.42-0.78c-0.19-0.06-0.38-0.08-0.58-0.08c-0.13,0-0.17,0.06-0.17,0.18C69.04,29.7,69.04,29.9,69.04,30.11z"/>
	<path fill-rule="evenodd" clip-rule="evenodd" fill="#676563" d="M92.61,29.18c0.45,0.01,0.86,0.11,1.23,0.38
		c0.39,0.29,0.58,0.68,0.64,1.13c0.08,0.62-0.1,1.17-0.56,1.62c-0.26,0.24-0.57,0.35-0.91,0.41c-0.34,0.06-0.69,0.03-1.02-0.02
		c-0.23-0.03-0.45-0.16-0.63-0.33c-0.21-0.18-0.39-0.38-0.5-0.64c-0.1-0.27-0.11-0.55-0.11-0.83c0-0.62,0.22-1.14,0.78-1.46
		C91.85,29.24,92.22,29.16,92.61,29.18z M93.89,30.96c0.01-0.29-0.03-0.58-0.13-0.86c-0.19-0.54-0.6-0.81-1.2-0.8
		c-0.56,0.01-0.96,0.31-1.13,0.85c-0.16,0.53-0.16,1.06,0,1.59c0.17,0.56,0.56,0.84,1.16,0.85c0.58,0.01,0.99-0.27,1.18-0.82
		C93.87,31.52,93.9,31.25,93.89,30.96z"/>
	<path fill-rule="evenodd" clip-rule="evenodd" fill="#676563" d="M54.27,29.63c0,0.83-0.01,1.64,0,2.45c0,0.33,0.1,0.4,0.48,0.46
		c0.05,0.01,0.11,0,0.11,0.06c0.01,0.07-0.06,0.07-0.1,0.07c-0.35,0-0.71,0-1.06,0c-0.04,0-0.08,0-0.09-0.05
		c-0.01-0.07,0.05-0.07,0.09-0.08c0.06-0.02,0.12-0.05,0.19-0.08c0.17-0.07,0.25-0.19,0.24-0.38c-0.01-0.74,0-1.49,0-2.23
		c0-0.13-0.04-0.24-0.09-0.36c-0.08-0.16-0.21-0.1-0.32-0.14c-0.03-0.01-0.05-0.02-0.04-0.1c0.01-0.02,0.06-0.01,0.11-0.01
		c0.11,0,0.21,0,0.32,0c0.57,0,0.56,0,0.9,0.46c0.51,0.68,1.02,1.35,1.53,2.02c0.02,0.03,0.05,0.06,0.08,0.08
		c0.09-0.05,0.05-0.12,0.05-0.18c0-0.55,0-1.1,0-1.64c0-0.42-0.1-0.53-0.52-0.62c-0.02,0-0.03-0.02-0.04-0.04
		c0.14-0.1,0.88-0.12,1.23-0.04c0,0.11-0.08,0.08-0.14,0.1c-0.34,0.1-0.37,0.14-0.37,0.49c0,0.88,0,1.76,0,2.64
		c0,0.08,0.05,0.2-0.05,0.24c-0.11,0.04-0.17-0.06-0.23-0.14c-0.71-0.94-1.41-1.87-2.12-2.81C54.39,29.75,54.39,29.67,54.27,29.63z"
		/>
	<path fill-rule="evenodd" clip-rule="evenodd" fill="#676563" d="M74.2,32.6c-0.03,0.08-0.08,0.07-0.13,0.07c-0.33,0-0.67,0-1,0
		c-0.05,0-0.13,0.02-0.13-0.07c0-0.06,0.06-0.06,0.11-0.07c0.04-0.01,0.07-0.02,0.11-0.04c0.23-0.08,0.3-0.17,0.3-0.4
		c0-0.76,0-1.53,0-2.29c0-0.31-0.09-0.4-0.4-0.45c-0.03,0-0.05-0.02-0.07-0.05c0.01-0.09,0.08-0.07,0.13-0.07
		c0.21,0,0.43,0.01,0.65-0.01c0.16-0.01,0.26,0.06,0.34,0.17c0.39,0.52,0.78,1.04,1.17,1.56c0.18,0.24,0.36,0.48,0.54,0.72
		c0.03,0.04,0.06,0.08,0.12,0.07C76,31.75,76,31.69,76,31.65c0-0.6,0.01-1.19-0.01-1.79c-0.01-0.25-0.1-0.44-0.46-0.49
		c-0.04-0.01-0.08-0.01-0.1-0.05c0.15-0.1,1-0.12,1.24-0.02c-0.04,0.1-0.15,0.07-0.23,0.1c-0.25,0.09-0.29,0.14-0.29,0.4
		c0,0.9,0,1.8,0,2.7c0,0.11,0.04,0.23-0.1,0.34c-0.81-1.06-1.61-2.12-2.42-3.19c-0.07,0.02-0.03,0.09-0.03,0.14
		c0,0.71,0,1.43,0,2.14c0,0.03,0,0.06,0,0.09c0.02,0.4,0.09,0.49,0.5,0.53C74.13,32.55,74.17,32.55,74.2,32.6z"/>
	<path fill-rule="evenodd" clip-rule="evenodd" fill="#676563" d="M99.14,32.82c-0.79-1.06-1.59-2.12-2.39-3.18
		c-0.06,0.07-0.03,0.14-0.03,0.2c0,0.7,0,1.41,0,2.11c0,0.47,0.02,0.49,0.49,0.59c0.04,0.01,0.08,0.01,0.09,0.06
		c0.01,0.05-0.03,0.07-0.07,0.07c-0.39-0.01-0.78,0.04-1.17-0.02c0,0-0.01-0.02-0.02-0.05c0.06-0.07,0.15-0.09,0.23-0.12
		c0.23-0.09,0.31-0.19,0.31-0.43c0-0.71,0-1.43,0-2.14c0-0.08,0-0.16-0.03-0.23c-0.07-0.19-0.16-0.36-0.41-0.32
		c-0.04,0.01-0.1,0-0.12-0.09c0.09-0.05,0.2-0.04,0.3-0.04c0.26,0.01,0.56-0.09,0.78,0.04c0.2,0.12,0.32,0.38,0.48,0.58
		c0.45,0.6,0.9,1.2,1.35,1.79c0.05,0.06,0.1,0.11,0.2,0.22c0-0.12,0-0.19,0-0.26c0-0.57,0-1.13,0-1.7c0-0.38-0.11-0.5-0.48-0.55
		c-0.05-0.01-0.12,0.01-0.14-0.07c0.22-0.08,1.02-0.08,1.27-0.01c0,0.09-0.07,0.07-0.12,0.09c-0.41,0.15-0.39,0.22-0.39,0.52
		c-0.01,0.87,0,1.74-0.01,2.61C99.25,32.61,99.29,32.73,99.14,32.82z"/>
	<path fill-rule="evenodd" clip-rule="evenodd" fill="#676563" d="M66.15,30.12c-0.11-0.12-0.16-0.21-0.2-0.3
		c-0.14-0.32-0.37-0.48-0.73-0.46c-0.19,0.01-0.44-0.08-0.57,0.04c-0.14,0.13-0.04,0.39-0.05,0.59c-0.01,0.21,0,0.43,0,0.65
		c0,0.07,0,0.15,0.1,0.15c0.15,0,0.3,0.02,0.44-0.01c0.18-0.04,0.34-0.13,0.33-0.37c0-0.03,0.02-0.05,0.03-0.08
		c0-0.01,0.01-0.01,0.02-0.02c0.09,0.16,0.11,0.84,0.03,1.14c-0.09,0-0.08-0.07-0.08-0.12c-0.05-0.26-0.18-0.39-0.44-0.41
		c-0.42-0.04-0.43-0.03-0.43,0.38c0,0.3,0,0.61,0.02,0.91c0.02,0.29,0.08,0.33,0.36,0.34c0.13,0,0.26-0.01,0.38,0
		c0.39,0.03,0.64-0.18,0.81-0.5c0.06-0.11,0.15-0.21,0.14-0.34c-0.01-0.08,0.05-0.1,0.12-0.09c0.07,0.01,0.07,0.06,0.07,0.11
		c-0.01,0.27-0.02,0.55-0.05,0.82c-0.01,0.12-0.07,0.14-0.17,0.14c-0.84,0-1.68,0-2.52,0c-0.03,0-0.06,0-0.09-0.01
		c-0.03-0.01-0.05-0.02-0.05-0.06c0-0.03,0.02-0.05,0.05-0.06c0.38-0.12,0.42-0.18,0.42-0.56c0-0.69,0-1.39,0-2.08
		c0-0.09-0.01-0.17-0.04-0.26c-0.05-0.18-0.12-0.31-0.33-0.29c-0.01,0-0.03-0.02-0.04-0.03c0,0,0-0.02,0-0.03
		c0.02-0.07,0.09-0.05,0.14-0.06c0.7,0,1.41,0,2.11,0c0.15,0,0.21,0.05,0.21,0.2C66.12,29.65,66.21,29.85,66.15,30.12z"/>
	<path fill-rule="evenodd" clip-rule="evenodd" fill="#17AA9D" d="M120,10.54c0,0.26,0,0.53,0,0.79c0,0.12-0.04,0.17-0.17,0.17
		c-0.41,0-0.82-0.01-1.23,0c-0.14,0-0.19-0.05-0.19-0.19c0-0.55,0-1.1,0-1.64c0-0.13,0.05-0.17,0.17-0.17c0.42,0,0.84,0,1.26,0
		c0.11,0,0.16,0.04,0.16,0.16C120,9.95,120,10.25,120,10.54z"/>
	<path fill-rule="evenodd" clip-rule="evenodd" fill="#676563" d="M104.59,32.63c-0.12,0.06-0.22,0.04-0.33,0.04
		c-0.28,0-0.57,0-0.85,0c-0.06,0-0.16,0.03-0.16-0.07c0-0.08,0.09-0.06,0.14-0.06c0.06-0.01,0.11-0.03,0.16-0.05
		c0.1-0.05,0.11-0.12,0.07-0.19c-0.14-0.25-0.25-0.51-0.33-0.79c-0.02-0.07-0.07-0.09-0.13-0.09c-0.36,0-0.72,0-1.09,0
		c-0.08,0-0.13,0.04-0.16,0.1c-0.08,0.21-0.19,0.4-0.22,0.63c-0.03,0.25,0.02,0.31,0.27,0.39c0.03,0.01,0.05,0.03,0.07,0.04
		c0,0.05-0.02,0.08-0.07,0.08c-0.27,0-0.55,0-0.82,0c-0.05,0-0.1,0-0.12-0.06c-0.01-0.05,0.03-0.07,0.07-0.08
		c0.2-0.09,0.31-0.25,0.39-0.44c0.19-0.45,0.38-0.9,0.58-1.34c0.21-0.48,0.37-0.99,0.62-1.45c0.02-0.04,0.03-0.09,0.09-0.1
		c0.08-0.01,0.09,0.06,0.12,0.11c0.19,0.44,0.38,0.89,0.57,1.34c0.23,0.55,0.47,1.11,0.7,1.66c0.05,0.11,0.13,0.16,0.23,0.22
		C104.46,32.55,104.54,32.52,104.59,32.63z M103.22,31.28c-0.2-0.49-0.39-0.93-0.59-1.42c-0.21,0.5-0.41,0.94-0.58,1.42
		C102.44,31.28,102.8,31.28,103.22,31.28z"/>
	<path fill-rule="evenodd" clip-rule="evenodd" fill="#676563" d="M81.46,32.6c-0.24,0.09-1.08,0.1-1.33,0.04
		c-0.01-0.09,0.06-0.08,0.11-0.09c0.25-0.05,0.29-0.11,0.21-0.34c-0.09-0.24-0.2-0.48-0.29-0.72c-0.03-0.07-0.09-0.07-0.14-0.07
		c-0.34,0-0.68,0-1.03,0c-0.1,0-0.16,0.04-0.2,0.14c-0.06,0.17-0.15,0.34-0.19,0.52c-0.06,0.29-0.03,0.35,0.23,0.47
		c0.04,0.02,0.08,0.02,0.08,0.07c0,0.05-0.04,0.06-0.08,0.06c-0.27,0-0.55,0-0.82,0c-0.04,0-0.08-0.02-0.08-0.06
		c0-0.03,0.02-0.05,0.05-0.06c0.44-0.2,0.48-0.66,0.66-1.03c0.14-0.29,0.25-0.6,0.37-0.9c0.13-0.3,0.27-0.59,0.38-0.9
		c0.05-0.14,0.13-0.25,0.18-0.39c0.02-0.05,0-0.12,0.09-0.13c0.08-0.01,0.12,0.05,0.15,0.12c0.07,0.17,0.15,0.34,0.22,0.51
		c0.34,0.8,0.68,1.61,1.01,2.41C81.11,32.42,81.26,32.54,81.46,32.6z M80.1,31.29c-0.2-0.48-0.38-0.92-0.6-1.43
		c-0.21,0.51-0.41,0.96-0.59,1.43C79.33,31.29,79.69,31.29,80.1,31.29z"/>
	<path fill-rule="evenodd" clip-rule="evenodd" fill="#676563" d="M105.82,32.61c0.08-0.08,0.16-0.07,0.22-0.07
		c0.27-0.02,0.37-0.12,0.37-0.38c0.01-0.5,0.01-1,0.01-1.5c0-0.3,0-0.61,0-0.91c-0.01-0.31-0.07-0.37-0.37-0.4
		c-0.07,0-0.14,0.01-0.21-0.06c0.18-0.13,0.37-0.05,0.55-0.06c0.18-0.01,0.37,0,0.56,0c0.19,0,0.39,0,0.59,0
		c-0.03,0.17-0.14,0.12-0.21,0.12c-0.32,0.02-0.37,0.06-0.38,0.39c-0.01,0.81-0.01,1.62,0,2.43c0,0.3,0.06,0.35,0.37,0.36
		c0.14,0,0.27-0.01,0.41,0c0.48,0.04,0.72-0.2,0.88-0.64c0.03-0.09-0.01-0.26,0.14-0.24c0.17,0.02,0.08,0.19,0.08,0.29
		c0.01,0.17-0.01,0.35,0,0.53c0.01,0.17-0.08,0.19-0.22,0.19c-0.41,0-0.82,0-1.23,0c-0.44,0-0.88,0-1.32,0
		C105.98,32.67,105.91,32.67,105.82,32.61z"/>
	<path fill-rule="evenodd" clip-rule="evenodd" fill="#676563" d="M59.48,32.61c0.09-0.08,0.18-0.06,0.26-0.07
		c0.26-0.01,0.4-0.15,0.42-0.42c0.01-0.14,0.01-0.27,0.01-0.41c0-0.69,0-1.39,0-2.08c0-0.27,0-0.27-0.28-0.27c-0.13,0-0.25,0-0.38,0
		c-0.4,0.01-0.51,0.1-0.62,0.48c-0.02,0.07-0.05,0.15-0.08,0.22c0,0.01-0.03,0.01-0.08,0.03c0-0.25,0-0.48,0-0.72
		c0-0.1,0.06-0.14,0.15-0.13c0.06,0,0.12,0,0.18,0c0.89,0,1.78,0,2.67,0c0.43,0,0.34-0.02,0.36,0.37c0.01,0.14,0,0.29,0,0.47
		c-0.13-0.07-0.18-0.12-0.2-0.24c-0.05-0.3-0.25-0.46-0.54-0.46c-0.22,0-0.5-0.1-0.65,0.05c-0.13,0.14-0.04,0.41-0.04,0.62
		c0,0.63,0,1.25,0,1.88c0,0.08,0,0.16,0,0.23c0.02,0.32,0.07,0.37,0.38,0.39c0.04,0,0.08,0,0.12,0.01c0.04,0,0.08,0.02,0.07,0.07
		c0,0.04-0.03,0.04-0.06,0.05c-0.04,0.01-0.08,0.01-0.12,0.01c-0.45,0-0.9,0-1.35,0C59.63,32.67,59.56,32.67,59.48,32.61z"/>
	<path fill-rule="evenodd" clip-rule="evenodd" fill="#676563" d="M83.59,32.61c0.03-0.09,0.11-0.06,0.17-0.06
		c0.33-0.03,0.42-0.11,0.44-0.45c0.01-0.12,0-0.23,0-0.35c0-0.69,0-1.39,0-2.08c0-0.32,0.02-0.29-0.31-0.29c-0.12,0-0.23,0-0.35,0
		c-0.38,0.01-0.52,0.12-0.62,0.48c-0.02,0.07-0.01,0.14-0.06,0.19c-0.01,0-0.02,0-0.03,0.01c-0.08-0.02-0.06-0.09-0.06-0.14
		c0-0.18,0.01-0.35,0.01-0.53c0-0.09,0.04-0.15,0.14-0.14c0.05,0,0.1,0,0.15,0c0.93,0,1.86,0,2.79,0c0.28,0,0.28,0,0.28,0.27
		c0,0.16,0,0.31,0,0.47c0,0.04-0.01,0.08-0.06,0.09c-0.06,0.01-0.08-0.01-0.1-0.07c-0.07-0.18-0.09-0.37-0.26-0.51
		c-0.08-0.07-0.15-0.12-0.25-0.12c-0.2,0-0.39,0-0.59,0c-0.14-0.01-0.19,0.04-0.19,0.19c0.01,0.33,0,0.67,0,1c0,0.47,0,0.94,0,1.41
		c0,0.11,0,0.22,0.02,0.32c0.03,0.19,0.1,0.25,0.29,0.26c0.05,0,0.1,0,0.15,0s0.11,0,0.1,0.07c0,0.07-0.07,0.06-0.11,0.06
		c-0.48,0-0.96,0-1.44,0C83.66,32.67,83.61,32.68,83.59,32.61z"/>
	<path fill-rule="evenodd" clip-rule="evenodd" fill="#676563" d="M50.61,29.28c0.27-0.07,1.35-0.06,1.57,0.01
		c-0.06,0.1-0.16,0.06-0.23,0.07c-0.22,0.03-0.28,0.08-0.29,0.29c-0.01,0.86-0.01,1.72,0,2.58c0,0.23,0.07,0.28,0.3,0.3
		c0.07,0.01,0.15-0.02,0.2,0.05c0,0.07-0.04,0.08-0.08,0.08c-0.45,0-0.9,0-1.35,0c-0.04,0-0.11,0.01-0.12-0.06
		c-0.01-0.07,0.05-0.06,0.1-0.07c0.35-0.06,0.41-0.13,0.41-0.47c0-0.75,0-1.51,0-2.26c0-0.05,0-0.1,0-0.15
		c-0.03-0.19-0.12-0.27-0.3-0.3c-0.07-0.01-0.14,0.02-0.2-0.03C50.63,29.33,50.63,29.32,50.61,29.28z"/>
	<path fill-rule="evenodd" clip-rule="evenodd" fill="#676563" d="M89.15,29.28c-0.06,0.12-0.15,0.08-0.22,0.09
		c-0.24,0.03-0.28,0.07-0.3,0.31c-0.01,0.09-0.01,0.18-0.01,0.26c0,0.7,0,1.41,0,2.11c0,0.07,0,0.14,0.01,0.21
		c0.03,0.21,0.08,0.26,0.29,0.29c0.06,0.01,0.12,0.01,0.17,0.02c0.01,0,0.03,0.03,0.03,0.04c0.01,0.03-0.01,0.06-0.04,0.07
		c-0.04,0.01-0.08,0.01-0.12,0.01c-0.41,0-0.82,0-1.23,0c-0.05,0-0.1,0.01-0.13-0.04c-0.01-0.09,0.06-0.08,0.11-0.09
		c0.23-0.04,0.34-0.15,0.38-0.37c0.01-0.05,0.01-0.1,0.01-0.15c0-0.72,0-1.45,0-2.17c0-0.09,0-0.17-0.04-0.26
		c-0.07-0.15-0.15-0.27-0.34-0.24c-0.05,0.01-0.12,0.02-0.14-0.06C87.77,29.22,88.79,29.21,89.15,29.28z"/>
</g>
</svg>
